<svg role="img" viewBox="0 0 26 26" xmlns="http://www.w3.org/2000/svg" fill="#ffffff"><path d="M18.561 13.158c-1.102 0-2.135-.467-3.074-1.227l.228-1.077.008-.042c.207-1.143.849-3.06 2.839-3.06 1.492 0 2.703 1.212 2.703 2.703-.001 1.489-1.211 2.703-2.704 2.703zm0-7.347c-2.559 0-4.641 2.083-4.641 4.643 0 .491.079.959.213 1.399l.481-2.264c-2.227 1.83-4.707 2.126-6.191 2.18-.088-2.673.666-6.666 3.656-9.769l-1.394-1.398c-3.167 3.287-4.113 7.502-3.929 11.234H4.55V.158H2.554v13.561c0 2.228 1.805 4.035 4.032 4.035 2.225 0 4.034-1.807 4.034-4.035V9.754c1.868.045 4.295-.531 6.27-2.148-.025.176-.039.354-.039.537 0 3.64 2.962 6.602 6.602 6.602v-2.001c-2.536 0-4.602-2.064-4.602-4.601 0-.745.18-1.442.493-2.056.299-2.583 2.484-4.594 5.109-4.594V-.06c-3.321 0-6.11 2.477-6.89 5.871z"/></svg>
